<?xml version="1.0" standalone="no"?>
<!DOCTYPE svg PUBLIC "-//W3C//DTD SVG 20010904//EN"
 "http://www.w3.org/TR/2001/REC-SVG-20010904/DTD/svg10.dtd">
<svg version="1.0" xmlns="http://www.w3.org/2000/svg"
 width="373.000000pt" height="373.000000pt" viewBox="0 0 373.000000 373.000000"
 preserveAspectRatio="xMidYMid meet">
<metadata>
Created by potrace 1.14, written by Peter Selinger 2001-2017
</metadata>
<g transform="translate(0.000000,373.000000) scale(0.100000,-0.100000)"
fill="#000000" stroke="none">
<path d="M1434 2503 c-14 -42 -29 -63 -46 -63 -10 0 -18 -7 -18 -15 0 -8 -7
-15 -17 -15 -15 0 -15 -2 0 -17 8 -10 18 -31 22 -48 4 -16 11 -40 18 -53 9
-18 4 -34 -27 -97 -21 -41 -46 -80 -57 -85 -10 -6 -30 -31 -45 -55 -14 -25
-28 -45 -31 -45 -15 0 -43 23 -43 35 0 8 -6 12 -13 9 -24 -9 -227 216 -227
252 0 9 -3 14 -7 10 -4 -4 -32 21 -63 54 -48 52 -58 59 -69 46 -9 -11 -10 -20
-2 -35 10 -17 7 -23 -14 -37 -14 -9 -32 -13 -42 -10 -15 6 -16 5 -5 -5 6 -7
12 -18 12 -23 0 -6 -18 15 -41 47 -22 31 -44 55 -49 52 -4 -3 7 -34 26 -69 32
-63 33 -64 13 -82 -10 -9 -19 -14 -19 -11 0 3 -12 -6 -26 -20 -19 -19 -23 -28
-13 -34 7 -4 17 -5 21 -3 19 12 5 -18 -24 -51 -35 -40 -95 -75 -130 -75 -13 0
-33 11 -46 24 -12 13 -44 31 -69 40 l-47 16 -24 -30 c-13 -16 -30 -30 -38 -30
-8 0 -14 -3 -14 -7 0 -22 -65 -43 -134 -43 -120 0 -155 -22 -140 -87 14 -65
14 -65 47 -59 18 2 55 11 82 18 28 8 62 13 75 12 14 -1 44 -3 68 -5 43 -3 46
-7 43 -55 -1 -12 10 -35 24 -52 15 -18 24 -36 20 -42 -10 -17 -15 -72 -7 -84
3 -6 7 -15 9 -21 1 -5 4 -21 8 -35 12 -53 13 -88 6 -123 -5 -19 -5 -39 -1 -44
14 -14 16 -58 3 -59 -7 -1 -19 -2 -27 -3 -27 -2 -27 -31 -1 -41 14 -5 28 -18
32 -27 11 -30 63 -103 74 -103 5 0 14 10 19 23 6 12 20 38 31 57 17 28 20 44
15 82 -4 28 -2 65 5 88 9 30 9 46 -1 69 -7 17 -13 65 -14 108 -1 43 -5 84 -9
91 -5 7 -6 20 -3 30 4 10 -5 52 -18 93 l-24 74 26 23 c15 12 47 33 72 46 39
20 49 22 74 11 24 -10 29 -19 31 -51 1 -21 0 -43 -3 -49 -11 -18 -13 -38 -16
-235 -4 -205 -5 -210 -31 -285 -9 -28 -13 -60 -10 -77 7 -32 9 -32 36 -17 26
13 42 53 44 110 1 25 4 50 8 55 3 5 2 16 -2 23 -5 7 -3 38 4 68 7 32 12 109
11 185 -2 148 18 255 56 295 17 18 21 34 19 75 -1 28 -3 53 -5 55 -9 9 -76 8
-81 -1 -3 -6 -2 0 1 14 3 14 15 34 26 45 l19 20 -6 -20 -7 -20 17 20 c17 20
17 20 10 -4 -5 -16 -4 -21 4 -17 6 4 11 1 11 -8 0 -9 11 -23 25 -32 14 -9 25
-25 25 -35 0 -18 17 -35 26 -26 6 6 -35 95 -47 103 -5 3 -9 24 -9 47 0 31 7
48 24 64 l24 23 20 -53 c55 -142 61 -163 52 -203 -10 -43 -3 -63 8 -24 5 21 8
17 15 -25 20 -126 11 -200 -36 -294 -9 -19 -17 -41 -17 -50 -1 -9 -9 -32 -20
-51 l-19 -35 -1 30 -2 30 -8 -26 c-10 -33 -5 -367 5 -377 4 -4 5 5 3 21 -3 15
-1 30 3 33 5 3 7 17 4 31 -2 15 6 53 20 87 72 184 94 247 105 301 17 88 32
134 46 146 7 6 10 20 7 32 -2 12 -7 44 -9 70 -4 46 -3 48 18 42 51 -16 137
-116 141 -164 0 -11 4 -18 8 -15 20 12 39 -11 41 -50 l1 -41 6 42 c6 41 42 98
114 177 27 30 28 30 21 6 -16 -52 -24 -188 -14 -216 5 -11 4 -27 -1 -36 -7
-12 -2 -34 16 -74 14 -31 25 -67 25 -81 0 -31 13 -57 57 -111 58 -72 106 -46
64 34 -13 24 -22 46 -21 50 1 4 -2 10 -7 13 -20 14 -55 108 -61 165 -12 107
-3 267 18 347 20 70 27 105 35 157 4 30 34 92 43 92 4 0 12 15 18 34 8 28 7
37 -7 55 -10 13 -16 32 -13 46 2 14 0 25 -6 25 -6 0 -8 -4 -5 -10 3 -6 -4 -9
-19 -8 -13 1 -22 6 -20 10 3 4 -1 8 -9 8 -10 0 -13 7 -10 20 7 25 -5 27 -13 3z"/>
<path d="M2928 2293 c-10 -2 -18 -9 -18 -14 0 -6 -5 -7 -12 -3 -6 4 -8 3 -5
-3 4 -6 0 -16 -8 -23 -10 -8 -13 -22 -9 -39 3 -14 6 -33 6 -42 0 -10 7 -15 21
-14 19 1 25 -9 44 -73 17 -55 20 -79 12 -88 -6 -8 -7 -23 -3 -36 8 -25 10 -33
12 -60 1 -10 9 -18 17 -18 10 0 15 -10 15 -33 0 -18 7 -55 16 -80 17 -51 15
-109 -6 -167 -7 -19 -19 -54 -27 -78 -16 -46 -49 -70 -109 -77 -30 -4 -39 0
-75 37 -22 23 -48 56 -56 72 -9 17 -33 53 -54 81 -43 57 -60 105 -37 105 8 0
21 -18 28 -40 8 -24 20 -40 29 -40 12 0 12 3 3 12 -7 7 -12 19 -12 28 0 9 -18
51 -40 93 -40 77 -41 85 -42 222 0 32 9 75 27 119 l27 68 -23 23 c-22 22 -44
29 -76 26 -18 -2 -44 -56 -69 -146 -12 -44 -23 -72 -23 -63 -1 24 -55 70 -98
85 -20 7 -77 14 -127 14 -74 2 -100 -2 -138 -20 -50 -23 -123 -103 -134 -147
-3 -13 -10 -24 -14 -24 -11 0 -37 -83 -46 -144 -5 -40 -2 -58 19 -105 14 -31
33 -77 42 -102 9 -26 31 -62 49 -80 18 -19 42 -48 53 -64 45 -64 251 -135 229
-79 -3 8 6 15 23 19 16 3 43 24 61 47 34 42 90 166 90 198 0 11 5 22 11 26 6
3 8 15 6 26 -3 11 -1 32 4 47 10 25 12 22 33 -44 13 -38 34 -87 48 -107 14
-20 28 -55 32 -77 4 -30 10 -39 21 -35 9 4 17 -5 23 -28 5 -18 15 -32 21 -30
7 1 15 -7 18 -18 3 -11 9 -17 15 -14 5 3 23 -5 41 -19 18 -13 55 -32 83 -41
50 -16 52 -16 90 6 22 12 53 33 69 46 39 32 95 134 101 186 3 23 9 65 15 95 5
34 5 66 0 85 -23 72 -33 148 -22 159 11 11 103 13 152 2 25 -6 28 -10 24 -32
-4 -26 22 -83 38 -83 5 0 6 -17 2 -37 -4 -21 -8 -44 -9 -52 -2 -8 4 -28 12
-45 10 -19 16 -65 18 -126 1 -52 4 -103 6 -114 2 -12 -4 -20 -15 -22 -10 -1
-25 -8 -33 -15 -12 -10 -9 -15 21 -36 19 -13 35 -29 35 -35 0 -20 52 -88 66
-88 8 0 14 5 14 11 0 6 12 31 27 57 29 49 35 79 20 99 -5 7 -4 34 4 68 9 42 9
64 1 93 -6 20 -14 73 -17 117 -10 167 -9 160 -41 234 -15 34 -15 35 17 60 18
14 53 35 78 47 38 18 52 19 95 11 42 -7 57 -6 84 9 31 17 32 19 32 81 0 67 1
66 -60 63 -25 -1 -46 -12 -75 -40 -44 -41 -94 -70 -122 -70 -10 0 -29 10 -43
23 -14 12 -45 30 -70 40 l-44 17 -31 -29 c-65 -61 -106 -81 -166 -81 l-57 0
-17 53 c-18 54 -24 89 -26 145 -1 17 -5 32 -11 32 -5 0 -7 4 -3 9 12 20 -37
35 -77 24z m-581 -318 c39 -27 55 -74 53 -160 -1 -79 -2 -91 -16 -170 -16 -91
-116 -165 -174 -128 -33 21 -105 96 -121 125 -15 28 -37 117 -33 138 19 117
17 115 90 117 48 2 72 8 91 23 14 11 23 20 19 20 -11 0 48 49 59 50 6 0 20 -7
32 -15z"/>
<path d="M1376 2275 c-9 -26 -7 -32 5 -12 6 10 9 21 6 23 -2 3 -7 -2 -11 -11z"/>
<path d="M1627 2086 c-46 -42 -74 -119 -84 -225 -2 -31 -6 -67 -8 -81 -2 -14
-4 -40 -4 -59 -1 -19 -4 -31 -8 -28 -9 9 -33 -12 -33 -30 0 -13 35 -93 91
-208 31 -64 158 -201 204 -220 28 -12 35 -11 70 8 31 17 48 39 77 96 21 41 38
77 38 81 0 4 -10 12 -23 17 -25 12 -46 4 -82 -30 -11 -10 -32 -25 -47 -33 -26
-13 -31 -12 -69 11 -26 17 -47 41 -59 68 l-19 42 22 12 c12 7 31 13 42 13 20
0 70 53 95 100 33 62 42 159 25 283 -8 65 -24 94 -84 156 -58 60 -100 68 -144
27z m104 -123 c40 -24 59 -79 59 -169 0 -101 -22 -145 -82 -164 -48 -15 -79
-14 -91 4 -8 11 -7 163 1 228 3 32 61 118 79 118 3 0 18 -8 34 -17z"/>
<path d="M1175 2080 c-3 -5 -1 -10 4 -10 6 0 11 5 11 10 0 6 -2 10 -4 10 -3 0
-8 -4 -11 -10z"/>
<path d="M2672 1380 c0 -14 2 -19 5 -12 2 6 2 18 0 25 -3 6 -5 1 -5 -13z"/>
<path d="M2722 1350 c0 -14 2 -19 5 -12 2 6 2 18 0 25 -3 6 -5 1 -5 -13z"/>
</g>
</svg>
